<svg width="481" height="91" viewBox="0 0 481 91" fill="none" xmlns="http://www.w3.org/2000/svg">
<path d="M234.5 83.5415V0.541504H251.5V41.5415L285.5 0.541504H306.5L270 45.5415L307 89.0415H284.5L258.5 57.0415L234.5 83.5415Z" fill="white"/>
<path d="M337.5 26.0416C338.996 4.19755 355.2 0.713563 365 0.0415912C374.8 -0.630381 390.661 6.78883 392.5 26.0416H375.5C375.5 21.0416 373 16.0416 365 16.0416C357 16.0416 353.5 21.5416 353.5 26.0416C353.5 30.5416 356 35.4764 365 37.0416C374 38.6068 392.5 41.5416 392.5 63.0416C392.5 84.5416 367.048 90.5328 364.5 89.5416V73.0416C365.469 73.0413 376.282 71.4195 375.5 63.0416C374.718 54.6637 370.355 53.5019 364.5 52.5416L364.486 52.5393C358.609 51.5753 336.005 47.8682 337.5 26.0416Z" fill="white"/>
<path d="M47 17.0415H63.5L35 90.5415L0 0.541504H17.5L35 48.5415L47 17.0415Z" fill="white"/>
<path d="M67 89.0415V0.541504H108.5V16.0415H83.5V37.0415H119.5V52.0415H83.5V73.0415H108.5V89.0415H67Z" fill="white"/>
<path d="M179 89.0415V0.541504H220.5V16.0415H195.5V37.0415H231.5V52.0415H195.5V73.0415H220.5V89.0415H179Z" fill="white"/>
<path d="M176 0.541504H123V15.0415H176V0.541504Z" fill="white"/>
<path d="M158 32.5415H141V89.0415H158V32.5415Z" fill="white"/>
<path d="M437.5 36C434.808 36 432.55 37.5763 431.776 38.2875C431 39 429 41.1513 429 44.5015C429 47 430 49 431.776 50.714C432.624 51.5326 434.5 53 437.5 53C440.5 53 442.615 51.2766 443.212 50.714C444.5 49.5 445.95 47.503 445.95 44.5015C445.95 41.5 444.5 39.5 443.212 38.3023C441.923 37.1047 440 36 437.5 36Z" fill="white"/>
<path d="M438 0C410.5 -1.17961e-10 394 19.9241 394 44.5C394 69.0759 414.253 89 438 89C461.747 89 481 69.0759 481 44.5C481 19.9241 464.5 1.15477e-10 438 0ZM455.642 66C452.502 69.3494 445.5 74 438.014 74C427.5 74 422.528 69.3494 419.386 66C413.5 60.5 411.065 52.2282 411.065 44.5015C411.065 36.6176 415.174 26.6991 419.386 22.7475C425 17 432.07 15 438.014 15C443.958 15 451.5 18.5 455.5 22.8C459.697 26.7516 463.936 35 463.936 44.5015C463.936 53.5 459.838 61.8927 455.642 66Z" fill="white"/>
</svg>
