<svg width="11" height="8" viewBox="0 0 11 8" fill="none" xmlns="http://www.w3.org/2000/svg">
<path d="M3.33528 5.76093L8.83965 0.256559C9.01069 0.0855196 9.22838 0 9.49271 0C9.75705 0 9.97473 0.0855196 10.1458 0.256559C10.3168 0.427599 10.4023 0.645286 10.4023 0.909621C10.4023 1.17395 10.3168 1.39164 10.1458 1.56268L3.98834 7.72012C3.80175 7.90671 3.58406 8 3.33528 8C3.08649 8 2.8688 7.90671 2.68222 7.72012L0.256559 5.29446C0.0855196 5.12342 0 4.90573 0 4.6414C0 4.37706 0.0855196 4.15938 0.256559 3.98834C0.427599 3.8173 0.645287 3.73178 0.909621 3.73178C1.17396 3.73178 1.39164 3.8173 1.56268 3.98834L3.33528 5.76093Z" fill="#177808"/>
</svg>
